<?xml version="1.0" encoding="UTF-8"?>
<svg viewBox="0 0 37 31" version="1.1" xmlns="http://www.w3.org/2000/svg" xmlns:xlink="http://www.w3.org/1999/xlink">
  <!-- Generator: Sketch 64 (93537) - https://sketch.com -->
  <title>logo-serverless-light</title>
  <desc>Created with Sketch.</desc>
  <g id="Page-1" stroke="none" stroke-width="1" fill="none" fill-rule="evenodd">
    <g id="logo-serverless-light" fill-rule="nonzero">
      <path d="M12.2197183,7.2 L14.4,0.8 L0,0.8 L0,7.2 L12.2197183,7.2 Z M37.6,7.2 L37.6,0.8 L21.2725275,0.8 L19.2,7.2 L37.6,7.2 Z M8.4815534,18.4 L10.4,12 L0,12 L0,18.4 L8.4815534,18.4 Z M37.6,18.4 L37.6,12 L17.143379,12 L15.2,18.4 L37.6,18.4 Z M4.5,30.4 L6.4,24 L0,24 L0,30.4 L4.5,30.4 Z M37.6,30.4 L37.6,24 L13.293617,24 L11.2,30.4 L37.6,30.4 Z" id="ß" fill="#FD5750"></path>
    </g>
  </g>
</svg>
